<svg xmlns="http://www.w3.org/2000/svg" viewBox="0 0 1024 1024" fill="none" shape-rendering="geometricPrecision">
    <defs>
        <linearGradient id="logo_grad" x1="160" y1="864" x2="864" y2="160" gradientUnits="userSpaceOnUse">
            <stop offset="0%" stop-color="#00D5FF"/>
            <stop offset="36%" stop-color="#1482FF"/>
            <stop offset="70%" stop-color="#4E5BFF"/>
            <stop offset="100%" stop-color="#F23BC4"/>
        </linearGradient>
        <linearGradient id="bar_grad" x1="0" y1="700" x2="0" y2="380" gradientUnits="userSpaceOnUse">
            <stop offset="0%" stop-color="#1768E8"/>
            <stop offset="100%" stop-color="#00C8F4"/>
        </linearGradient>
        <clipPath id="zigzag_cut" clipPathUnits="userSpaceOnUse">
            <path fill-rule="evenodd" clip-rule="evenodd" d="M0 0H1024V1024H0Z M526.6 98.2 L523.4 98.4 L520.8 99 L518.3 100.2 L516 102 L513.6 104.6 L512.2 107 L511.2 110.1 L510.8 114 L505.5 266.8 L505.7 268.6 L506.4 271.2 L507.6 273.8 L509.2 276 L511.9 278.4 L514.4 279.9 L516.9 280.8 L519.9 281.2 L523 281 L525.7 280.3 L528.2 279.1 L530.5 277.4 L532.9 274.8 L534.3 272.3 L535.3 269.2 L535.7 265.5 L541 112.6 L540.8 110.8 L540.1 108.1 L539 105.6 L537.2 103.3 L534.6 101 L532.1 99.5 L529.6 98.6 Z M755.2 176.9 L752.7 175.4 L750.4 174.6 L748 174.2 L745 174.2 L742.6 174.6 L739.6 175.8 L737 177.5 L735.2 179.2 L644.4 304.1 L642.9 306.8 L642 309.3 L641.6 312.3 L641.8 315.5 L642.4 318.1 L643.6 320.6 L645.3 323 L648 325.3 L650.4 326.8 L652.7 327.6 L655 328 L658.2 328 L660.6 327.6 L663.6 326.4 L666.1 324.7 L668 323 L758.7 198 L760.2 195.4 L761.1 192.9 L761.6 189.9 L761.4 186.7 L760.7 184 L759.5 181.6 L757.8 179.2 Z M847.1 268.8 L844.8 266.2 L842.4 264.5 L840 263.3 L837.3 262.6 L834.1 262.4 L831.1 262.9 L828.6 263.8 L826 265.3 L701 356 L699.3 357.9 L697.6 360.4 L696.4 363.4 L696 365.8 L696 369 L696.4 371.3 L697.2 373.6 L698.7 376 L701 378.7 L703.4 380.4 L705.9 381.6 L708.5 382.2 L711.7 382.4 L714.7 382 L717.2 381.1 L719.9 379.6 L844.8 288.8 L846.5 287 L848.2 284.4 L849.4 281.4 L849.8 279 L849.8 276 L849.4 273.6 L848.6 271.3 Z M908.1 391.4 L907.3 389.1 L905.9 386.6 L903.5 384 L901.2 382.3 L898.7 381.1 L895.1 380.3 L892 380.3 L889.2 380.9 L742.1 425.9 L739.6 427 L737.3 428.8 L735.6 430.6 L733.9 433.1 L732.7 436.1 L732.2 438.5 L732.2 441.6 L732.7 444 L733.5 446.2 L735 448.8 L737.3 451.4 L739.6 453 L742.1 454.2 L745.7 455 L748.8 455 L751.6 454.5 L898.7 409.5 L901.2 408.3 L903.5 406.6 L905.2 404.8 L907 402.2 L908.1 399.2 L908.6 396.9 L908.6 393.8 Z M742.9 515.6 L743 518.8 L744.2 522.5 L745.6 525 L748 527.6 L750.3 529.3 L752.8 530.5 L755.4 531.2 L759.7 531.4 L911.6 534 L913.4 533.8 L916 533.1 L918.6 532 L920.9 530.2 L923.2 527.6 L924.7 525.1 L925.6 522.6 L926 519.6 L925.8 516.4 L924.7 512.8 L923.2 510.2 L920.9 507.6 L918.6 506 L916 504.8 L913.4 504 L909.2 503.8 L757.2 501.2 L755.4 501.4 L752.8 502.1 L750.3 503.3 L748 505 L745.6 507.6 L744.2 510.1 L743.3 512.6 Z M190 798.6 L190.4 801 L191.6 804 L193.3 806.5 L195 808.3 L197.4 810 L199.9 811.2 L202.5 811.9 L204.3 812 L388.7 812 L390.5 811.9 L393.1 811.2 L395.6 810 L398.7 807.7 L518 687.4 L644.3 732.5 L646.4 734.8 L648.7 736.4 L651.2 737.6 L653.8 738.3 L655.6 738.5 L658.8 738.3 L661.4 737.6 L664 736.4 L671 731.5 L678.1 726.2 L684.1 721.4 L692.7 714 L694.3 716.5 L696 718.3 L697.7 719.6 L699.8 720.8 L702 721.6 L704.4 722 L711 722 L713.4 726.9 L715 729.5 L717.3 732.4 L722 737 L724.5 739 L727.1 740.6 L731.1 742.7 L733.7 743.8 L736.9 744.8 L740.2 745.5 L744.9 746 L750.4 746 L753.8 745.5 L756.9 744.8 L760.3 743.8 L762.9 742.7 L766.9 740.6 L769.5 739 L772 737 L776.7 732.4 L779 729.5 L780.6 726.9 L783 722 L918.6 722 L921 721.6 L924 720.4 L926.5 718.7 L928.7 716.5 L930.4 714 L931.6 711 L932 708.6 L932 705.4 L931.6 703 L930.8 700.8 L929.6 698.7 L928.3 697 L926.5 695.3 L924 693.6 L921 692.4 L918.6 692 L783 692 L780.6 687.1 L779 684.5 L777 682 L773.9 678.7 L769.5 675 L766.1 673 L760.3 670.2 L757.1 669.2 L753.8 668.5 L750.4 668 L747.7 668 L743.6 668 L740.2 668.5 L736.9 669.2 L733.7 670.2 L730.7 671.5 L727.9 673 L725 674.7 L721.6 677.3 L717 682 L715 684.5 L713.4 687.1 L711 692 L709.6 691.9 L709.6 689.9 L709.1 687.5 L708.3 685.2 L707.6 683.8 L705.9 681.5 L703.2 679.1 L700.8 677.7 L697 676.6 L695.2 676.4 L693 676.4 L689.4 677.2 L687 678.4 L685 679.8 L678.6 686.1 L670.9 693.2 L664.4 698.6 L657.1 704.4 L656.3 704.8 L519.1 655.8 L515.6 655 L512.4 655 L510 655.4 L507.8 656.2 L505.3 657.7 L503.3 659.3 L381.8 782 L203.4 782 L201 782.4 L198 783.6 L195.5 785.3 L193.3 787.5 L191.6 790 L190.4 793 L190 795.4 Z"/>
        </clipPath>
    </defs>

    <g clip-path="url(#zigzag_cut)">
        <g fill="url(#logo_grad)">
            <path fill-rule="evenodd" d="M896 512 A384 384 0 1 1 128 512 A384 384 0 1 1 896 512 Z M768 512 A256 256 0 1 0 256 512 A256 256 0 1 0 768 512 Z"/>
        </g>
        <g fill="url(#bar_grad)">
            <rect x="371" y="522" width="79" height="174" rx="14"/>
            <rect x="476" y="464" width="77" height="229" rx="14"/>
            <rect x="581" y="381" width="76" height="312" rx="14"/>
        </g>
    </g>

    <circle cx="747" cy="706" r="23" fill="#00F0FF"/>
</svg>
